HIERARCHY
ROOT Hips
{
	OFFSET -0.001795 -0.223333 0.028219
	CHANNELS 6 Xposition Yposition Zposition Zrotation Yrotation Xrotation 
	JOINT LeftUpLeg
	{
		OFFSET 0.069520 -0.091406 -0.006815
		CHANNELS 3 Zrotation Yrotation Xrotation
		JOINT LeftLeg
		{
			OFFSET 0.034277 -0.375199 -0.004496
			CHANNELS 3 Zrotation Yrotation Xrotation
			JOINT LeftFoot
			{
				OFFSET -0.013596 -0.397961 -0.043693
				CHANNELS 3 Zrotation Yrotation Xrotation
				JOINT LeftToe
				{
					OFFSET 0.026358 -0.055791 0.119288
					CHANNELS 3 Zrotation Yrotation Xrotation
					End Site
					{
						OFFSET 0.000000 0.000000 0.000000
					}
				}
			}
		}
	}
	JOINT RightUpLeg
	{
		OFFSET -0.067670 -0.090522 -0.004320
		CHANNELS 3 Zrotation Yrotation Xrotation
		JOINT RightLeg
		{
			OFFSET -0.038290 -0.382569 -0.008850
			CHANNELS 3 Zrotation Yrotation Xrotation
			JOINT RightFoot
			{
				OFFSET 0.015774 -0.398415 -0.042312
				CHANNELS 3 Zrotation Yrotation Xrotation
				JOINT RightToe
				{
					OFFSET -0.025372 -0.048144 0.123348
					CHANNELS 3 Zrotation Yrotation Xrotation
					End Site
					{
						OFFSET 0.000000 0.000000 0.000000
					}
				}
			}
		}
	}
	JOINT Spine
	{
		OFFSET -0.002533 0.108963 -0.026696
		CHANNELS 3 Zrotation Yrotation Xrotation
		JOINT Spine1
		{
			OFFSET 0.005487 0.135180 0.001092
			CHANNELS 3 Zrotation Yrotation Xrotation
			JOINT Spine2
			{
				OFFSET 0.001457 0.052922 0.025425
				CHANNELS 3 Zrotation Yrotation Xrotation
				JOINT Neck
				{
					OFFSET -0.002778 0.213870 -0.042857
					CHANNELS 3 Zrotation Yrotation Xrotation
					JOINT Head
					{
						OFFSET 0.005152 0.064970 0.051349
						CHANNELS 3 Zrotation Yrotation Xrotation
						End Site
						{
							OFFSET 0.000000 0.000000 0.000000
						}
					}
				}
				JOINT LeftShoulder
				{
					OFFSET 0.078845 0.121749 -0.034090
					CHANNELS 3 Zrotation Yrotation Xrotation
					JOINT LeftArm
					{
						OFFSET 0.090977 0.030469 -0.008868
						CHANNELS 3 Zrotation Yrotation Xrotation
						JOINT LeftForeArm
						{
							OFFSET 0.259612 -0.012772 -0.027456
							CHANNELS 3 Zrotation Yrotation Xrotation
							JOINT LeftHand
							{
								OFFSET 0.249234 0.008986 -0.001171
								CHANNELS 3 Zrotation Yrotation Xrotation
								End Site
								{
									OFFSET 0.000000 0.000000 0.000000
								}
							}
						}
					}
				}
				JOINT RightShoulder
				{
					OFFSET -0.081759 0.118833 -0.038615
					CHANNELS 3 Zrotation Yrotation Xrotation
					JOINT RightArm
					{
						OFFSET -0.096012 0.032551 -0.009143
						CHANNELS 3 Zrotation Yrotation Xrotation
						JOINT RightForeArm
						{
							OFFSET -0.253742 -0.013329 -0.021401
							CHANNELS 3 Zrotation Yrotation Xrotation
							JOINT RightHand
							{
								OFFSET -0.255298 0.007772 -0.005559
								CHANNELS 3 Zrotation Yrotation Xrotation
								End Site
								{
									OFFSET 0.000000 0.000000 0.000000
								}
							}
						}
					}
				}
			}
		}
	}
}
MOTION
Frames: 5
Frame Time: 0.050000
-0.778335 0.934509 -0.825609 -176.117095 -35.392670 171.670900 3.192781 8.613597 -11.442110 64.269455 26.510746 73.294064 -64.314406 -28.970428 27.503779 0.000000 0.000000 0.000000 4.597676 1.054360 -2.656502 9.341343 7.769081 7.472061 -38.798970 3.042288 19.580160 0.000000 0.000000 0.000000 7.244267 0.019721 8.674081 4.788426 10.208024 -1.267642 -6.024555 -2.369182 12.615344 8.433253 1.161220 -16.743840 0.000000 0.000000 0.000000 -33.945214 5.095866 42.520348 -29.679389 -34.831156 -5.630529 36.426333 -79.982036 -26.621744 0.000000 0.000000 0.000000 19.672629 9.342585 -52.725065 26.676088 -53.560051 -8.559511 77.275277 30.678142 18.630062 0.000000 0.000000 0.000000 
-0.801092 0.936928 -0.854919 -176.975534 -35.332134 170.774845 2.671135 8.907961 -12.962665 35.839144 28.587989 53.221216 -43.623609 -22.168035 2.394985 0.000000 0.000000 0.000000 4.539915 2.436615 2.749268 7.811895 6.558974 4.985403 -39.046977 2.355141 18.380264 0.000000 0.000000 0.000000 7.240959 0.041298 8.835151 4.089195 10.804496 -0.349877 -5.948127 -0.977068 12.704744 8.483540 0.490765 -16.029600 0.000000 0.000000 0.000000 -33.456673 4.731876 40.755724 -31.695664 -33.564092 -5.303246 31.414447 -82.558171 -21.555825 0.000000 0.000000 0.000000 20.394726 10.053487 -50.808018 31.705132 -48.849993 -9.680970 75.431339 33.807133 19.820024 0.000000 0.000000 0.000000 
-0.823999 0.937924 -0.882018 -177.178794 -35.418951 170.122951 2.078074 9.260503 -14.452538 8.270660 17.260828 24.957411 0.233034 6.248096 14.162478 0.000000 0.000000 0.000000 5.297325 4.129466 7.324381 6.268541 5.538847 2.565279 -39.317015 1.429692 18.169113 0.000000 0.000000 0.000000 7.510099 0.118682 9.265731 2.896178 10.589803 -0.707545 -5.149984 0.800651 12.912247 7.889441 -0.020540 -15.643086 0.000000 0.000000 0.000000 -33.089398 4.080577 39.935443 -33.156086 -32.253680 -5.237017 17.072495 -85.287166 -8.332552 0.000000 0.000000 0.000000 20.765936 9.682664 -49.451450 34.462153 -46.231929 -10.322669 74.990389 35.461846 20.596319 0.000000 0.000000 0.000000 
-0.846810 0.936325 -0.908244 -176.949837 -36.930710 169.913681 1.564037 9.595036 -15.963018 1.464016 6.848168 9.305142 35.095646 18.560696 81.956173 0.000000 0.000000 0.000000 6.541588 5.229152 10.394728 4.899548 4.632127 1.408117 -40.425298 -0.278539 18.671898 0.000000 0.000000 0.000000 7.521356 0.026939 8.555558 3.310190 10.173860 -0.732729 -5.297525 1.324770 13.385894 7.139884 -1.110793 -16.855124 0.000000 0.000000 0.000000 -32.877328 3.828690 38.981200 -34.792288 -32.165106 -4.910889 -1.530303 -86.815784 10.536040 0.000000 0.000000 0.000000 20.401004 9.697147 -47.836915 38.623716 -44.043108 -11.780480 75.475551 37.659029 21.332324 0.000000 0.000000 0.000000 
-0.869754 0.931981 -0.934127 -176.770580 -37.292328 169.452990 1.182847 9.553461 -16.540871 1.454994 3.406204 3.253048 66.661896 31.151466 111.900425 0.000000 0.000000 0.000000 7.398188 6.714969 13.387464 4.746198 4.287194 0.950294 -41.875279 -2.015974 18.952661 0.000000 0.000000 0.000000 7.558166 0.079552 8.973886 2.157057 9.937848 -0.947997 -4.152511 1.519496 12.956671 6.617195 -1.388929 -17.269380 0.000000 0.000000 0.000000 -33.614849 4.110846 38.899880 -34.026314 -32.212748 -5.308443 -7.153506 -88.197775 16.404499 0.000000 0.000000 0.000000 19.886413 8.419742 -46.313367 39.577760 -42.933922 -12.527858 79.892096 37.748459 23.018575 0.000000 0.000000 0.000000 
